# xmcd
#
# Track frame offsets: 
#        150
#        12287
#        23225
#        40314
#        51829
#        74496
#        86595
#        101051
#        126220
#        138983
#        149158
#
# Disc length: 2307 seconds
#
# Revision: 1
# Processed by: cddbd v1.5.2PL0 Copyright (c) Steve Scherf et al.
# Submitted via: ExactAudioCopy v0.99pb3
#
DISCID=a209010b
DTITLE=The James Cotton Blues Band - The James Cotton Blues Band
DYEAR=1967
DGENRE=Blues
TTITLE0=Good Time Charlie  
TTITLE1=Turn On Your Lovelight 
TTITLE2=Something On Your Mind 
TTITLE3=Don't Start Me Talkin' 
TTITLE4=Jelly, Jelly 
TTITLE5=Off The Wall
TTITLE6=Feelin' Good 
TTITLE7=Sweet Sixteen
TTITLE8=Knock On Wood
TTITLE9=Oh Why 
TTITLE10=Blues In My Sleep
EXTD=
EXTT0=
EXTT1=
EXTT2=
EXTT3=
EXTT4=
EXTT5=
EXTT6=
EXTT7=
EXTT8=
EXTT9=
EXTT10=
PLAYORDER=
